<mxfile host="app.diagrams.net" modified="2023-11-26T21:27:18.135Z" agent="Mozilla/5.0 (Macintosh; Intel Mac OS X 10_15_7) AppleWebKit/537.36 (KHTML, like Gecko) Chrome/119.0.0.0 Safari/537.36" version="22.1.4" etag="ysninXtVl_cHz_TL0OOV" type="github">
  <diagram name="Страница — 1" id="HWHsl12ej0av9xsQGW4A">
    <mxGraphModel>
      <root>
        <mxCell id="0" />
        <mxCell id="1" parent="0" />
      </root>
    </mxGraphModel>
  </diagram>
</mxfile>
